<svg width="16" height="16" viewBox="0 0 16 16" fill="none" xmlns="http://www.w3.org/2000/svg">
  <rect width="16" height="16" rx="3" fill="url(#gradient)" />
  <circle cx="4" cy="4" r="1" fill="#fff" opacity="0.9" />
  <circle cx="8" cy="3" r="1" fill="#fff" opacity="0.9" />
  <circle cx="12" cy="4" r="1" fill="#fff" opacity="0.9" />
  <circle cx="3" cy="8" r="1" fill="#fff" opacity="0.8" />
  <circle cx="8" cy="8" r="1.5" fill="#fff" />
  <circle cx="13" cy="8" r="1" fill="#fff" opacity="0.8" />
  <circle cx="4" cy="12" r="1" fill="#fff" opacity="0.9" />
  <circle cx="8" cy="13" r="1" fill="#fff" opacity="0.9" />
  <circle cx="12" cy="12" r="1" fill="#fff" opacity="0.9" />
  <path d="M4 4 L8 3 M8 3 L12 4 M4 4 L3 8 M12 4 L13 8 M3 8 L8 8 M8 8 L13 8 M3 8 L4 12 M13 8 L12 12 M4 12 L8 13 M8 13 L12 12 M8 3 L8 8 M8 8 L8 13" 
        stroke="#fff" stroke-width="0.3" opacity="0.4" />
  <defs>
    <linearGradient id="gradient" x1="0%" y1="0%" x2="100%" y2="100%">
      <stop offset="0%" style="stop-color:#667eea;stop-opacity:1" />
      <stop offset="100%" style="stop-color:#764ba2;stop-opacity:1" />
    </linearGradient>
  </defs>
</svg>